<?xml version="1.0" encoding="utf-8"?>
<!-- Generator: Adobe Illustrator 28.1.0, SVG Export Plug-In . SVG Version: 6.00 Build 0)  -->
<svg version="1.1" id="Layer_1" xmlns="http://www.w3.org/2000/svg" xmlns:xlink="http://www.w3.org/1999/xlink" x="0px" y="0px"
	 viewBox="0 0 610 603" style="enable-background:new 0 0 610 603;" xml:space="preserve">
<style type="text/css">
	.st0{fill:none;stroke:#FFFFFF;stroke-width:5.6693;stroke-linecap:round;stroke-linejoin:round;stroke-miterlimit:10;}
	.st1{fill:none;}
	.st2{fill:#FFFFFF;}
	.st3{fill:none;stroke:#000000;stroke-width:5.6693;stroke-linecap:round;stroke-linejoin:round;stroke-miterlimit:10;}
</style>
<g>
	<path class="st0" d="M83.9,388.9c3.7-11.5,9.2-24.5,15.6-26.2c13.4,9.5,55.9,37.2,118.9,35.2c63-2,237.8-6.7,254.6-21.8
		c11.9,10.2,23.4,18.1,30.1,29.4c5.2,8.7,4.4,38.7,2.6,48.6c-4,21.6,2.1,20.4-228.6,17.2c-15.1-0.2-195.3,16.5-199.4-10.2
		L83.9,388.9z"/>
	<path class="st0" d="M525.6,193.8C525.6,193.8,525.6,193.8,525.6,193.8c5.8-4.8-9.5-17.2-13.2-20.2c-10.6-20.9-43.9-18.7-57.5-21.2
		c-3.3-10.3-17.2-26-53.8-25.6c-36.6,0.4-50.9,22.3-68.1,27.8c-17.2,5.5-24.9-5.9-64.4-13.9c-39.5-8.1-82.4,32.6-109.5,54.9
		c-27.1,22.3-11.2,28.4-22,33.3c-28.6,9.2-42.8,78.4-46.5,94.5c0,0,1.1,30,8.9,39.3c60.5,53.6,168.6,33.6,233.1,30.9
		c64.5-2.7,136.5-6,140.4-17.5c0,0,2.6-7.5,1.1-14.7c-20.8,8.7-60.1,15.8-100.5,5.9c-49.1-12.1-97.8-55.7-104-62.6
		c-6.2-7-16.5-14.3,0-27.8c16.5-13.6,36.3,16.8,124.5,23.1c85.9,2.2,101.2-13.2,103.8-17.8c0.8-1.3,1.8-2.4,3.3-2.9
		c0.9-0.3,1.6-0.3,2.3-0.1c-0.1-0.4-0.5-0.8-0.9-1.1c-6.6-4-5.5-15-5.5-15c9.9-13.5,2.2-14.3,7.3-17.6c5.1-3.3,19-17.2,19.8-20.3
		c0.2-0.8,0.7-2.8,1.2-5.3C526.9,212.5,528.9,200.3,525.6,193.8z"/>
	<path class="st0" d="M207.9,189.3c0,0,37.8-53.7,118-17.3"/>
	<path class="st0" d="M350,172.5c0,0,43-26.6,105-20.1"/>
	<path class="st0" d="M515,178.4c0,0-82.3-35.2-125,16.6"/>
	<path class="st0" d="M228.6,218.2c0,0,64-72.5,140.1-32.5c1.7,3.7,3.3,12-12.3,5.1c-15.6-6.8-72.2-10.7-103.5,27.3
		c-27.1,30.8-43.5,9.3-45.2,22.2c-1.7,12.9,19.8,10.3,19.8,10.3"/>
	<path class="st0" d="M139.9,228.4c0,0-2.8,22.3,0,25.9"/>
	<path class="st0" d="M502.6,247.2c0,0-41.8,13.2-51.3,8.6"/>
	<path class="st1" d="M475.9,314.3c-0.3,4.1,7.4,3.3,12.4,7.4l0.9-2.1c2.1,1.7,3.8,3.2,4.6,4.5c1,1.6,3.4,4.9,2.9,9
		c-1,7.3-2.3,15.1-11.8,22.7c0,0,0,0,0,0c-2.9,1.8-6.5,3.4-10.8,4.9c0.1,0.2,0.1,0.5,0.2,0.7c-20.8,8.7-60.1,15.8-100.5,5.9
		c-49.1-12.1-97.8-55.7-104-62.6c-6.2-7-16.5-14.3,0-27.8c16.5-13.6,36.3,16.8,124.5,23.1c85.9,2.2,101.2-13.2,103.8-17.8
		c0.8-1.3,1.8-2.4,3.3-2.9c0.9-0.3,1.6-0.3,2.3-0.1c1.9,5.4-21,20.2-25.1,25.6c-0.4,0.6-9.6,4-9.6,4.7L475.9,314.3z"/>
	<path class="st2" d="M446.9,308.9c0,0-86.9,15.5-148.7-15.2c-7.1-3.3-22.9-3-11.6,8.3c11.3,11.3,62.5,50.4,106,52.4
		s46.8,0.5,82.9-8.4C503,339.2,466.2,301.8,446.9,308.9z"/>
	<path class="st0" d="M325.7,324.6c0,0-2.7-11,12.7-5.6c15.4,5.4,48.3,18.6,62.3,21.7s21-3.9,22.9-8.5s2-15-6.3-18.3
		s-24.4-4.2-43.7-3.2c-19.3,1-58.3-11.7-67.1-13.8c-8.8-2.1-28-13.7-26-3.7C282.4,303.1,312.5,324.9,325.7,324.6z"/>
	<path class="st0" d="M503.5,279.1c-0.6-0.2-1.4-0.2-2.3,0.1c-1.4,0.5-2.5,1.6-3.3,2.9c-2.6,4.6-18,20-103.8,17.8
		c-88.2-6.2-108-36.6-124.5-23.1c-16.5,13.5-6.2,20.9,0,27.8c6.2,7,54.9,50.5,104,62.6c40.4,9.9,79.7,2.8,100.5-5.9
		c4.5-1.9,8-3.8,10.6-5.6c0,0,0,0,0,0c8.2-5.9,12.4-15,12.2-22.7c-0.1-5.8-2.7-11-7.8-13.4l0,0c-11.9-5.7-6-10.9-18.5-10.9h-0.3
		c3.5-0.7,5.2-1.5,7.2-2.2h0c6.8-2.4,22.8-10.7,26.5-17.9C506.7,283.8,506,279.8,503.5,279.1z M393.2,353.3
		C393.2,353.3,393.2,353.3,393.2,353.3c-16.1-2.1-32-7.2-48.8-16.4c-7.3-4-14.2-7.7-20.7-11.1h0c-10.3-5.5-19.3-10.5-26.1-14.9
		c0,0,0,0,0,0c-1.4-0.9-2.8-1.8-4-2.7c0,0,0,0,0,0c-3-2.2-5.4-4.2-7-6.2c0,0,0,0,0,0c-1.9-2.4-2.7-4.5-2-6.6
		c0.2-0.6,0.5-1.1,0.9-1.7c0.8-1.1,1.9-1.7,3.3-1.8h0c0.5-0.1,1.1,0,1.7,0c0,0,0,0,0,0c0,0,0,0,0,0c0.1,0,0.3,0,0.5,0.1c0,0,0,0,0,0
		c3.4,0.5,8.2,2.6,14.7,5.2c0.1,0,0.1,0,0.2,0.1c1.5,0.6,3.1,1.3,4.8,1.9c0,0,0,0,0,0c1.7,0.7,3.5,1.3,5.4,2c0.1,0,0.3,0.1,0.4,0.1
		c11.6,4.2,27,8.6,47.3,10.7c0,0,0.1,0,0.1,0c4,0.4,8.2,0.7,12.6,0.9c0,0,0,0,0,0c4.6,0.2,9.4,0.3,14.4,0.2h0.1c0.7,0,1.4,0,2,0
		c3.8-0.1,7.4-0.2,10.9-0.2c0,0,0,0,0,0c4.3-0.1,8.4-0.2,12.1-0.3h0c23.3-0.7,36.9-1.6,45.3-2.5c0.4,0,0.7-0.1,1.1-0.1
		c-0.2,0.1-0.3,0.2-0.4,0.3c-2.3,1.9,0.5,5.8,8.2,12.5c7.9,6.9,14.5,12.5,7.4,18c0,0,0,0,0,0c-3.8,2.9-11.5,5.7-24.9,8.6
		C431.6,354,412.3,355.8,393.2,353.3z"/>
	<path class="st3" d="M381.3,239.6c-3.4,4.9-9,9.5-17.7,12.9c-0.8,0.3-1.5,0.6-2.3,0.9c-15.6,6-37.5,13-64.1,12.2
		c-18.6-0.6-39.6-5-62.3-16.3c0,0,24.7-9,39.8-24.4c15.1-15.4,25.4-27.3,62-25.6c36.6,1.7,44.4,8.1,47.6,14.9c0.5,1.1,1,2.6,1.3,4.3
		c0,0,0,0,0,0C386.8,224.1,386.5,232.2,381.3,239.6z"/>
	<path class="st0" d="M502.5,232c9.3-3.7,17.5-7.9,22.9-12.3c4.9-4,7.6-8.3,6.7-12.6c-1.2-5.6-3.3-10-6.5-13.4
		c-9-9.6-26.7-11.9-56.3-14.2c-40-3.2-82.9,37.8-82.9,37.8l-6.9,12.2c0,0,14.1,18.5,55.5,18.4S502.5,232,502.5,232"/>
	<path class="st0" d="M381.3,239.6c-3.4,4.9-9,9.5-17.7,12.9c-0.8,0.3-1.5,0.6-2.3,0.9c-15.6,6-37.5,13-64.1,12.2
		c-18.6-0.6-39.6-5-62.3-16.3c0,0,24.7-9,39.8-24.4c15.1-15.4,25.4-27.3,62-25.6c36.6,1.7,44.4,8.1,47.6,14.9c0.5,1.1,1,2.6,1.3,4.3
		c0,0,0,0,0,0C386.8,224.1,386.5,232.2,381.3,239.6z"/>
	<path class="st1" d="M503.9,221.8c0,3.5-0.5,6.9-1.4,10.2v0c-19.8,7.9-45,13.9-60.1,16c-6.4-6.7-10.3-16-10.3-26.2
		c0-20.6,16.1-37.4,35.9-37.4C487.8,184.5,503.9,201.2,503.9,221.8z"/>
	<path class="st0" d="M363.1,241.9c0,4-0.6,7.9-1.8,11.6c-15.6,6-37.5,13-64.1,12.2c-5.4-6.4-8.6-14.7-8.6-23.8
		c0-20.6,16.7-37.2,37.2-37.2C346.5,204.7,363.1,221.4,363.1,241.9z"/>
	<circle class="st2" cx="340.8" cy="232.5" r="9.2"/>
	<circle class="st2" cx="315.5" cy="223.3" r="5.9"/>
	<circle class="st2" cx="313.5" cy="241.3" r="5.9"/>
	<circle class="st2" cx="325.9" cy="250.8" r="3.4"/>
	<path class="st0" d="M503.9,221.8c0,3.5-0.5,6.9-1.4,10.2v0c-22.8,12.4-44.9,14.8-60.1,16c-6.4-6.7-10.3-16-10.3-26.2
		c0-20.6,16.1-37.4,35.9-37.4C487.8,184.5,503.9,201.2,503.9,221.8z"/>
	<circle class="st2" cx="478" cy="217.4" r="11"/>
	<circle class="st2" cx="455" cy="199.2" r="5.5"/>
	<circle class="st2" cx="449.4" cy="223.3" r="5.5"/>
	<circle class="st2" cx="455.9" cy="235.4" r="4.6"/>
</g>
</svg>
