<?xml version="1.0" encoding="utf-8"?>
<!-- Generator: Adobe Illustrator 28.1.0, SVG Export Plug-In . SVG Version: 6.00 Build 0)  -->
<svg version="1.1" id="Layer_1" xmlns="http://www.w3.org/2000/svg" xmlns:xlink="http://www.w3.org/1999/xlink" x="0px" y="0px"
	 viewBox="0 0 120 44" style="enable-background:new 0 0 120 44;" xml:space="preserve">
<style type="text/css">
	.st0{fill:#06FFF2;}
	.st1{fill:none;stroke:#FFFFFF;stroke-width:0.4;stroke-linecap:round;stroke-linejoin:round;stroke-miterlimit:10;}
	.st2{fill:none;stroke:#FFFFFF;stroke-width:0.3137;stroke-linecap:round;stroke-linejoin:round;stroke-miterlimit:10;}
	.st3{fill:none;}
	.st4{fill:#FFFFFF;}
	.st5{fill:none;stroke:#000000;stroke-width:0.4;stroke-linecap:round;stroke-linejoin:round;stroke-miterlimit:10;}
</style>
<path class="st0" d="M90.5,27h21c3.6,0,6.5,2.9,6.5,6.5l0,0c0,3.6-2.9,6.5-6.5,6.5h-21c-3.6,0-6.5-2.9-6.5-6.5l0,0
	C84,29.9,86.9,27,90.5,27z"/>
<path d="M90.1,31.4v2.8h1.4c0.2,0,0.4,0,0.5-0.1c0.2-0.1,0.3-0.2,0.4-0.3c0.1-0.1,0.2-0.3,0.3-0.4c0.1-0.2,0.1-0.4,0.1-0.5
	c0-0.2,0-0.4-0.1-0.5c-0.1-0.2-0.2-0.3-0.3-0.4c-0.1-0.1-0.3-0.2-0.4-0.3c-0.2-0.1-0.4-0.1-0.5-0.1H90.1z M90.1,37h-1.4v-7h2.8
	c0.3,0,0.5,0,0.7,0.1c0.2,0.1,0.5,0.2,0.7,0.3c0.2,0.1,0.4,0.3,0.6,0.4c0.2,0.2,0.3,0.4,0.4,0.6c0.1,0.2,0.2,0.4,0.3,0.7
	c0.1,0.2,0.1,0.5,0.1,0.7c0,0.4-0.1,0.7-0.2,1.1c-0.1,0.3-0.3,0.6-0.6,0.9c-0.3,0.3-0.6,0.5-0.9,0.6c-0.3,0.1-0.7,0.2-1.1,0.2h-1.4
	V37z M100.1,37h-4.9v-7h1.4v5.6h3.5V37z M104.9,34.2v-1.4c0-0.2,0-0.4-0.1-0.5c-0.1-0.2-0.2-0.3-0.3-0.4c-0.1-0.1-0.3-0.2-0.4-0.3
	c-0.2-0.1-0.4-0.1-0.5-0.1c-0.2,0-0.4,0-0.5,0.1c-0.2,0.1-0.3,0.2-0.4,0.3c-0.1,0.1-0.2,0.3-0.3,0.4c-0.1,0.2-0.1,0.3-0.1,0.5v1.4
	H104.9z M106.3,37h-1.4v-1.4h-2.8V37h-1.4v-4.2c0-0.4,0.1-0.8,0.2-1.1c0.1-0.3,0.3-0.6,0.6-0.9c0.3-0.3,0.6-0.5,0.9-0.6
	c0.3-0.1,0.7-0.2,1.1-0.2c0.4,0,0.8,0.1,1.1,0.2c0.3,0.1,0.6,0.3,0.9,0.6c0.3,0.3,0.5,0.6,0.6,0.9c0.1,0.3,0.2,0.7,0.2,1.1V37z
	 M110.6,37h-1.4v-2.2c-0.3-0.1-0.6-0.2-0.9-0.4c-0.3-0.2-0.5-0.4-0.7-0.6c-0.2-0.2-0.3-0.5-0.4-0.8c-0.1-0.3-0.2-0.6-0.2-0.9V30h1.4
	v2.1c0,0.2,0,0.4,0.1,0.5c0.1,0.2,0.2,0.3,0.3,0.4c0.1,0.1,0.3,0.2,0.4,0.3c0.2,0.1,0.4,0.1,0.5,0.1s0.4,0,0.5-0.1
	c0.2-0.1,0.3-0.2,0.4-0.3c0.1-0.1,0.2-0.3,0.3-0.4c0.1-0.2,0.1-0.4,0.1-0.5V30h1.4v2.1c0,0.3-0.1,0.6-0.2,0.9
	c-0.1,0.3-0.2,0.6-0.4,0.8c-0.2,0.2-0.4,0.4-0.7,0.6c-0.3,0.2-0.5,0.3-0.8,0.4V37z"/>
<g>
	<path class="st1" d="M4.3,27c0.3-0.8,0.6-1.7,1.1-1.8c0.9,0.7,3.9,2.6,8.4,2.5s16.8-0.5,18-1.5c0.8,0.7,1.6,1.3,2.1,2.1
		c0.4,0.6,0.3,2.7,0.2,3.4c-0.3,1.5,0.1,1.4-16.1,1.2c-1.1,0-13.8,1.2-14.1-0.7L4.3,27z"/>
	<path class="st1" d="M35.5,13.3C35.5,13.3,35.5,13.3,35.5,13.3c0.4-0.3-0.7-1.2-0.9-1.4c-0.7-1.5-3.1-1.3-4.1-1.5
		c-0.2-0.7-1.2-1.8-3.8-1.8c-2.6,0-3.6,1.6-4.8,2c-1.2,0.4-1.8-0.4-4.5-1c-2.8-0.6-5.8,2.3-7.7,3.9c-1.9,1.6-0.8,2-1.6,2.4
		c-2,0.6-3,5.5-3.3,6.7c0,0,0.1,2.1,0.6,2.8c4.3,3.8,11.9,2.4,16.4,2.2c4.6-0.2,9.6-0.4,9.9-1.2c0,0,0.2-0.5,0.1-1
		c-1.5,0.6-4.2,1.1-7.1,0.4c-3.5-0.9-6.9-3.9-7.3-4.4s-1.2-1,0-2c1.2-1,2.6,1.2,8.8,1.6c6.1,0.2,7.1-0.9,7.3-1.3
		c0.1-0.1,0.1-0.2,0.2-0.2c0.1,0,0.1,0,0.2,0c0,0,0-0.1-0.1-0.1c-0.5-0.3-0.4-1.1-0.4-1.1c0.7-1,0.2-1,0.5-1.2
		c0.4-0.2,1.3-1.2,1.4-1.4c0-0.1,0-0.2,0.1-0.4C35.6,14.6,35.7,13.7,35.5,13.3z"/>
	<path class="st1" d="M13.1,13c0,0,2.7-3.8,8.3-1.2"/>
	<path class="st1" d="M23.1,11.8c0,0,3-1.9,7.4-1.4"/>
	<path class="st1" d="M34.7,12.2c0,0-5.8-2.5-8.8,1.2"/>
	<path class="st1" d="M14.5,15c0,0,4.5-5.1,9.9-2.3c0.1,0.3,0.2,0.8-0.9,0.4c-1.1-0.5-5.1-0.8-7.3,1.9c-1.9,2.2-3.1,0.7-3.2,1.6
		c-0.1,0.9,1.4,0.7,1.4,0.7"/>
	<path class="st2" d="M10.8,16.8c0,0-0.2,1.2,0,1.4"/>
	<path class="st1" d="M33.9,17c0,0-3,0.9-3.6,0.6"/>
	<path class="st3" d="M32,21.8c0,0.3,0.5,0.2,0.9,0.5l0.1-0.1c0.1,0.1,0.3,0.2,0.3,0.3c0.1,0.1,0.2,0.3,0.2,0.6
		c-0.1,0.5-0.2,1.1-0.8,1.6c0,0,0,0,0,0c-0.2,0.1-0.5,0.2-0.8,0.3c0,0,0,0,0,0.1c-1.5,0.6-4.2,1.1-7.1,0.4c-3.5-0.9-6.9-3.9-7.3-4.4
		s-1.2-1,0-2c1.2-1,2.6,1.2,8.8,1.6c6.1,0.2,7.1-0.9,7.3-1.3c0.1-0.1,0.1-0.2,0.2-0.2c0.1,0,0.1,0,0.2,0c0.1,0.4-1.5,1.4-1.8,1.8
		c0,0-0.7,0.3-0.7,0.3L32,21.8z"/>
	<path class="st4" d="M29.9,21.4c0,0-6.1,1.1-10.5-1.1c-0.5-0.2-1.6-0.2-0.8,0.6c0.8,0.8,4.4,3.6,7.5,3.7s3.3,0,5.8-0.6
		C33.9,23.5,31.3,20.9,29.9,21.4z"/>
	<path class="st1" d="M21.4,22.5c0,0-0.2-0.8,0.9-0.4s3.4,1.3,4.4,1.5s1.5-0.3,1.6-0.6c0.1-0.3,0.1-1.1-0.4-1.3
		c-0.6-0.2-1.7-0.3-3.1-0.2c-1.4,0.1-4.1-0.8-4.7-1c-0.6-0.1-2-1-1.8-0.3C18.3,21,20.4,22.5,21.4,22.5z"/>
	<path class="st1" d="M33.9,19.3c0,0-0.1,0-0.2,0c-0.1,0-0.2,0.1-0.2,0.2c-0.2,0.3-1.3,1.4-7.3,1.3c-6.2-0.4-7.6-2.6-8.8-1.6
		c-1.2,1-0.4,1.5,0,2s3.9,3.6,7.3,4.4c2.8,0.7,5.6,0.2,7.1-0.4c0.3-0.1,0.6-0.3,0.7-0.4c0,0,0,0,0,0c0.6-0.4,0.9-1.1,0.9-1.6
		c0-0.4-0.2-0.8-0.6-0.9l0,0c-0.8-0.4-0.4-0.8-1.3-0.8h0c0.2-0.1,0.4-0.1,0.5-0.2h0c0.5-0.2,1.6-0.8,1.9-1.3
		C34.1,19.6,34.1,19.3,33.9,19.3z M26.1,24.5C26.1,24.5,26.1,24.5,26.1,24.5c-1.1-0.1-2.3-0.5-3.4-1.2c-0.5-0.3-1-0.5-1.5-0.8h0
		c-0.7-0.4-1.4-0.7-1.8-1.1c0,0,0,0,0,0c-0.1-0.1-0.2-0.1-0.3-0.2c0,0,0,0,0,0c-0.2-0.2-0.4-0.3-0.5-0.4c0,0,0,0,0,0
		c-0.1-0.2-0.2-0.3-0.1-0.5c0,0,0-0.1,0.1-0.1c0.1-0.1,0.1-0.1,0.2-0.1h0c0,0,0.1,0,0.1,0c0,0,0,0,0,0c0,0,0,0,0,0c0,0,0,0,0,0
		c0,0,0,0,0,0c0.2,0,0.6,0.2,1,0.4c0,0,0,0,0,0c0.1,0,0.2,0.1,0.3,0.1c0,0,0,0,0,0c0.1,0,0.2,0.1,0.4,0.1c0,0,0,0,0,0
		c0.8,0.3,1.9,0.6,3.3,0.8c0,0,0,0,0,0c0.3,0,0.6,0.1,0.9,0.1c0,0,0,0,0,0c0.3,0,0.7,0,1,0h0c0,0,0.1,0,0.1,0c0.3,0,0.5,0,0.8,0
		c0,0,0,0,0,0c0.3,0,0.6,0,0.9,0h0c1.6,0,2.6-0.1,3.2-0.2c0,0,0.1,0,0.1,0c0,0,0,0,0,0c-0.2,0.1,0,0.4,0.6,0.9
		c0.6,0.5,1,0.9,0.5,1.3c0,0,0,0,0,0c-0.3,0.2-0.8,0.4-1.8,0.6C28.8,24.6,27.5,24.7,26.1,24.5z"/>
	<path class="st5" d="M25.3,16.5c-0.2,0.3-0.6,0.7-1.2,0.9c-0.1,0-0.1,0-0.2,0.1c-1.1,0.4-2.6,0.9-4.5,0.9c-1.3,0-2.8-0.4-4.4-1.2
		c0,0,1.7-0.6,2.8-1.7c1.1-1.1,1.8-1.9,4.4-1.8c2.6,0.1,3.1,0.6,3.4,1.1c0,0.1,0.1,0.2,0.1,0.3c0,0,0,0,0,0
		C25.7,15.4,25.7,16,25.3,16.5z"/>
	<path class="st1" d="M33.8,16c0.7-0.3,1.2-0.6,1.6-0.9c0.3-0.3,0.5-0.6,0.5-0.9c-0.1-0.4-0.2-0.7-0.5-0.9c-0.6-0.7-1.9-0.8-4-1
		c-2.8-0.2-5.9,2.7-5.9,2.7l-0.5,0.9c0,0,1,1.3,3.9,1.3S33.8,16,33.8,16"/>
	<path class="st1" d="M25.3,16.5c-0.2,0.3-0.6,0.7-1.2,0.9c-0.1,0-0.1,0-0.2,0.1c-1.1,0.4-2.6,0.9-4.5,0.9c-1.3,0-2.8-0.4-4.4-1.2
		c0,0,1.7-0.6,2.8-1.7c1.1-1.1,1.8-1.9,4.4-1.8c2.6,0.1,3.1,0.6,3.4,1.1c0,0.1,0.1,0.2,0.1,0.3c0,0,0,0,0,0
		C25.7,15.4,25.7,16,25.3,16.5z"/>
	<path class="st3" d="M33.9,15.2c0,0.2,0,0.5-0.1,0.7v0c-1.4,0.6-3.2,1-4.2,1.1c-0.5-0.5-0.7-1.1-0.7-1.9c0-1.5,1.1-2.6,2.5-2.6
		C32.8,12.6,33.9,13.8,33.9,15.2z"/>
	<path class="st1" d="M24,16.7c0,0.3,0,0.6-0.1,0.8c-1.1,0.4-2.6,0.9-4.5,0.9c-0.4-0.5-0.6-1-0.6-1.7c0-1.5,1.2-2.6,2.6-2.6
		C22.8,14,24,15.2,24,16.7z"/>
	<circle class="st4" cx="22.4" cy="16" r="0.6"/>
	<circle class="st4" cx="20.7" cy="15.4" r="0.4"/>
	<circle class="st4" cx="20.5" cy="16.6" r="0.4"/>
	<circle class="st4" cx="21.4" cy="17.3" r="0.2"/>
	<path class="st1" d="M33.9,15.2c0,0.2,0,0.5-0.1,0.7v0c-1.6,0.9-3.2,1-4.2,1.1c-0.5-0.5-0.7-1.1-0.7-1.9c0-1.5,1.1-2.6,2.5-2.6
		C32.8,12.6,33.9,13.8,33.9,15.2z"/>
	<circle class="st4" cx="32.1" cy="14.9" r="0.8"/>
	<circle class="st4" cx="30.5" cy="13.7" r="0.4"/>
	<circle class="st4" cx="30.1" cy="15.4" r="0.4"/>
	<circle class="st4" cx="30.6" cy="16.2" r="0.3"/>
</g>
<g>
	<path class="st4" d="M44.1,2.4c1.6,0,2.6,0.2,3.1,0.7c0.5,0.5,0.7,1.6,0.7,3.4v4.8c0,1.8-0.2,3-0.7,3.5c-0.5,0.5-1.5,0.7-3,0.7
		h-0.8v7.2h-3.5V2.4H44.1z M43.3,12.9h0.3c0.3,0,0.5-0.1,0.6-0.2c0.1-0.1,0.2-0.5,0.2-1V6.3c0-0.6-0.1-1-0.2-1.1
		c-0.1-0.1-0.3-0.2-0.7-0.2h-0.2V12.9z"/>
	<path class="st4" d="M54.9,2.4v2.6h-2.1v5.2h2.1v2.7h-2.1V20h2.1v2.7h-5.5V2.4H54.9z"/>
	<path class="st4" d="M62,2.4v2.6H60v5.2H62v2.7H60V20H62v2.7h-5.5V2.4H62z"/>
	<path class="st4" d="M68,2.4c1.6,0,2.6,0.2,3.1,0.7c0.5,0.5,0.7,1.6,0.7,3.4v4.8c0,1.8-0.2,3-0.7,3.5c-0.5,0.5-1.5,0.7-3,0.7h-0.8
		v7.2h-3.5V2.4H68z M67.2,12.9h0.3c0.3,0,0.5-0.1,0.6-0.2s0.2-0.5,0.2-1V6.3c0-0.6-0.1-1-0.2-1.1s-0.3-0.2-0.7-0.2h-0.2V12.9z"/>
	<path class="st4" d="M73.1,6.3c0-1.8,0.2-2.9,0.7-3.4c0.5-0.5,1.6-0.7,3.3-0.7c1.8,0,2.9,0.2,3.3,0.7c0.5,0.5,0.7,1.6,0.7,3.4v12.5
		c0,1.8-0.2,2.9-0.7,3.4c-0.5,0.4-1.6,0.7-3.2,0.7c-1.8,0-2.9-0.2-3.3-0.7c-0.5-0.5-0.7-1.6-0.7-3.4V6.3z M76.5,19.3
		c0,0.6,0.2,0.8,0.6,0.8c0.2,0,0.3-0.1,0.4-0.2s0.1-0.3,0.1-0.7V5.9C77.6,5.3,77.4,5,77,5c-0.3,0-0.5,0.3-0.5,0.9V19.3z"/>
	<path class="st4" d="M92.2,2.4v2.6h-2.1v5.2h2.1v2.7h-2.1v9.8h-3.5V2.4H92.2z"/>
	<path class="st4" d="M97.2,2.4V20h2.1v2.7h-5.5V2.4H97.2z"/>
	<path class="st4" d="M103.9,2.4v20.3h-3.5V2.4H103.9z"/>
	<path class="st4" d="M109.9,2.4c1.6,0,2.6,0.2,3.1,0.7c0.5,0.5,0.7,1.6,0.7,3.4v4.8c0,1.8-0.2,3-0.7,3.5c-0.5,0.5-1.5,0.7-3,0.7
		h-0.8v7.2h-3.5V2.4H109.9z M109.1,12.9h0.3c0.3,0,0.5-0.1,0.6-0.2s0.2-0.5,0.2-1V6.3c0-0.6-0.1-1-0.2-1.1s-0.3-0.2-0.7-0.2h-0.2
		V12.9z"/>
</g>
</svg>
