<?xml version="1.0" encoding="utf-8"?>
<!-- Generator: Adobe Illustrator 28.1.0, SVG Export Plug-In . SVG Version: 6.00 Build 0)  -->
<svg version="1.1" id="Layer_1" xmlns="http://www.w3.org/2000/svg" xmlns:xlink="http://www.w3.org/1999/xlink" x="0px" y="0px"
	 viewBox="0 0 120 44" style="enable-background:new 0 0 120 44;" xml:space="preserve">
<style type="text/css">
	.st0{fill:#06FFF2;}
	.st1{fill:none;stroke:#FFFFFF;stroke-width:0.4;stroke-linecap:round;stroke-linejoin:round;stroke-miterlimit:10;}
	.st2{fill:none;stroke:#FFFFFF;stroke-width:0.3137;stroke-linecap:round;stroke-linejoin:round;stroke-miterlimit:10;}
	.st3{fill:none;}
	.st4{fill:#FFFFFF;}
	.st5{fill:none;stroke:#000000;stroke-width:0.4;stroke-linecap:round;stroke-linejoin:round;stroke-miterlimit:10;}
</style>
<path class="st0" d="M90.5,27h21c3.6,0,6.5,2.9,6.5,6.5l0,0c0,3.6-2.9,6.5-6.5,6.5h-21c-3.6,0-6.5-2.9-6.5-6.5l0,0
	C84,29.9,86.9,27,90.5,27z"/>
<path d="M90.1,31.4v2.8h1.4c0.2,0,0.4,0,0.5-0.1c0.2-0.1,0.3-0.2,0.4-0.3s0.2-0.3,0.3-0.4c0.1-0.2,0.1-0.4,0.1-0.5
	c0-0.2,0-0.4-0.1-0.5c-0.1-0.2-0.2-0.3-0.3-0.4c-0.1-0.1-0.3-0.2-0.4-0.3c-0.2-0.1-0.4-0.1-0.5-0.1h-1.4V31.4z M90.1,37h-1.4v-7h2.8
	c0.3,0,0.5,0,0.7,0.1s0.5,0.2,0.7,0.3c0.2,0.1,0.4,0.3,0.6,0.4c0.2,0.2,0.3,0.4,0.4,0.6s0.2,0.4,0.3,0.7c0.1,0.2,0.1,0.5,0.1,0.7
	c0,0.4-0.1,0.7-0.2,1.1c-0.1,0.3-0.3,0.6-0.6,0.9c-0.3,0.3-0.6,0.5-0.9,0.6s-0.7,0.2-1.1,0.2h-1.4V37z M100.1,37h-4.9v-7h1.4v5.6
	h3.5V37z M104.9,34.2v-1.4c0-0.2,0-0.4-0.1-0.5c-0.1-0.2-0.2-0.3-0.3-0.4c-0.1-0.1-0.3-0.2-0.4-0.3c-0.2-0.1-0.4-0.1-0.5-0.1
	c-0.2,0-0.4,0-0.5,0.1c-0.2,0.1-0.3,0.2-0.4,0.3c-0.1,0.1-0.2,0.3-0.3,0.4c-0.1,0.2-0.1,0.3-0.1,0.5v1.4H104.9z M106.3,37h-1.4v-1.4
	h-2.8V37h-1.4v-4.2c0-0.4,0.1-0.8,0.2-1.1c0.1-0.3,0.3-0.6,0.6-0.9c0.3-0.3,0.6-0.5,0.9-0.6s0.7-0.2,1.1-0.2s0.8,0.1,1.1,0.2
	c0.3,0.1,0.6,0.3,0.9,0.6c0.3,0.3,0.5,0.6,0.6,0.9s0.2,0.7,0.2,1.1L106.3,37L106.3,37z M110.6,37h-1.4v-2.2
	c-0.3-0.1-0.6-0.2-0.9-0.4s-0.5-0.4-0.7-0.6c-0.2-0.2-0.3-0.5-0.4-0.8s-0.2-0.6-0.2-0.9V30h1.4v2.1c0,0.2,0,0.4,0.1,0.5
	c0.1,0.2,0.2,0.3,0.3,0.4c0.1,0.1,0.3,0.2,0.4,0.3c0.2,0.1,0.4,0.1,0.5,0.1s0.4,0,0.5-0.1c0.2-0.1,0.3-0.2,0.4-0.3s0.2-0.3,0.3-0.4
	c0.1-0.2,0.1-0.4,0.1-0.5V30h1.4v2.1c0,0.3-0.1,0.6-0.2,0.9c-0.1,0.3-0.2,0.6-0.4,0.8c-0.2,0.2-0.4,0.4-0.7,0.6
	c-0.3,0.2-0.5,0.3-0.8,0.4V37H110.6z"/>
<g>
	<path class="st1" d="M4.3,27c0.3-0.8,0.6-1.7,1.1-1.8c0.9,0.7,3.9,2.6,8.4,2.5s16.8-0.5,18-1.5c0.8,0.7,1.6,1.3,2.1,2.1
		c0.4,0.6,0.3,2.7,0.2,3.4c-0.3,1.5,0.1,1.4-16.1,1.2c-1.1,0-13.8,1.2-14.1-0.7L4.3,27z"/>
	<path class="st1" d="M35.5,13.3L35.5,13.3c0.4-0.3-0.7-1.2-0.9-1.4c-0.7-1.5-3.1-1.3-4.1-1.5c-0.2-0.7-1.2-1.8-3.8-1.8
		s-3.6,1.6-4.8,2s-1.8-0.4-4.5-1c-2.8-0.6-5.8,2.3-7.7,3.9s-0.8,2-1.6,2.4c-2,0.6-3,5.5-3.3,6.7c0,0,0.1,2.1,0.6,2.8
		c4.3,3.8,11.9,2.4,16.4,2.2c4.6-0.2,9.6-0.4,9.9-1.2c0,0,0.2-0.5,0.1-1c-1.5,0.6-4.2,1.1-7.1,0.4c-3.5-0.9-6.9-3.9-7.3-4.4
		s-1.2-1,0-2s2.6,1.2,8.8,1.6c6.1,0.2,7.1-0.9,7.3-1.3c0.1-0.1,0.1-0.2,0.2-0.2c0.1,0,0.1,0,0.2,0c0,0,0-0.1-0.1-0.1
		c-0.5-0.3-0.4-1.1-0.4-1.1c0.7-1,0.2-1,0.5-1.2c0.4-0.2,1.3-1.2,1.4-1.4c0-0.1,0-0.2,0.1-0.4C35.6,14.6,35.7,13.7,35.5,13.3z"/>
	<path class="st1" d="M13.1,13c0,0,2.7-3.8,8.3-1.2"/>
	<path class="st1" d="M23.1,11.8c0,0,3-1.9,7.4-1.4"/>
	<path class="st1" d="M34.7,12.2c0,0-5.8-2.5-8.8,1.2"/>
	<path class="st1" d="M14.5,15c0,0,4.5-5.1,9.9-2.3c0.1,0.3,0.2,0.8-0.9,0.4c-1.1-0.5-5.1-0.8-7.3,1.9c-1.9,2.2-3.1,0.7-3.2,1.6
		c-0.1,0.9,1.4,0.7,1.4,0.7"/>
	<path class="st2" d="M10.8,16.8c0,0-0.2,1.2,0,1.4"/>
	<path class="st1" d="M33.9,17c0,0-3,0.9-3.6,0.6"/>
	<path class="st3" d="M32,21.8c0,0.3,0.5,0.2,0.9,0.5l0.1-0.1c0.1,0.1,0.3,0.2,0.3,0.3c0.1,0.1,0.2,0.3,0.2,0.6
		c-0.1,0.5-0.2,1.1-0.8,1.6l0,0c-0.2,0.1-0.5,0.2-0.8,0.3c0,0,0,0,0,0.1c-1.5,0.6-4.2,1.1-7.1,0.4c-3.5-0.9-6.9-3.9-7.3-4.4
		s-1.2-1,0-2s2.6,1.2,8.8,1.6c6.1,0.2,7.1-0.9,7.3-1.3c0.1-0.1,0.1-0.2,0.2-0.2c0.1,0,0.1,0,0.2,0c0.1,0.4-1.5,1.4-1.8,1.8l-0.7,0.3
		L32,21.8z"/>
	<path class="st4" d="M29.9,21.4c0,0-6.1,1.1-10.5-1.1c-0.5-0.2-1.6-0.2-0.8,0.6c0.8,0.8,4.4,3.6,7.5,3.7s3.3,0,5.8-0.6
		C33.9,23.5,31.3,20.9,29.9,21.4z"/>
	<path class="st1" d="M21.4,22.5c0,0-0.2-0.8,0.9-0.4s3.4,1.3,4.4,1.5s1.5-0.3,1.6-0.6c0.1-0.3,0.1-1.1-0.4-1.3
		c-0.6-0.2-1.7-0.3-3.1-0.2c-1.4,0.1-4.1-0.8-4.7-1c-0.6-0.1-2-1-1.8-0.3C18.3,21,20.4,22.5,21.4,22.5z"/>
	<path class="st1" d="M33.9,19.3c0,0-0.1,0-0.2,0c-0.1,0-0.2,0.1-0.2,0.2c-0.2,0.3-1.3,1.4-7.3,1.3c-6.2-0.4-7.6-2.6-8.8-1.6
		c-1.2,1-0.4,1.5,0,2s3.9,3.6,7.3,4.4c2.8,0.7,5.6,0.2,7.1-0.4c0.3-0.1,0.6-0.3,0.7-0.4l0,0c0.6-0.4,0.9-1.1,0.9-1.6
		c0-0.4-0.2-0.8-0.6-0.9l0,0c-0.8-0.4-0.4-0.8-1.3-0.8l0,0c0.2-0.1,0.4-0.1,0.5-0.2l0,0c0.5-0.2,1.6-0.8,1.9-1.3
		C34.1,19.6,34.1,19.3,33.9,19.3z M26.1,24.5L26.1,24.5c-1.1-0.1-2.3-0.5-3.4-1.2c-0.5-0.3-1-0.5-1.5-0.8l0,0
		c-0.7-0.4-1.4-0.7-1.8-1.1l0,0c-0.1-0.1-0.2-0.1-0.3-0.2l0,0c-0.2-0.2-0.4-0.3-0.5-0.4l0,0c-0.1-0.2-0.2-0.3-0.1-0.5
		c0,0,0-0.1,0.1-0.1c0.1-0.1,0.1-0.1,0.2-0.1l0,0h0.1l0,0l0,0l0,0l0,0c0.2,0,0.6,0.2,1,0.4l0,0c0.1,0,0.2,0.1,0.3,0.1l0,0
		c0.1,0,0.2,0.1,0.4,0.1l0,0c0.8,0.3,1.9,0.6,3.3,0.8l0,0c0.3,0,0.6,0.1,0.9,0.1l0,0c0.3,0,0.7,0,1,0l0,0h0.1c0.3,0,0.5,0,0.8,0l0,0
		c0.3,0,0.6,0,0.9,0l0,0c1.6,0,2.6-0.1,3.2-0.2h0.1l0,0c-0.2,0.1,0,0.4,0.6,0.9s1,0.9,0.5,1.3l0,0c-0.3,0.2-0.8,0.4-1.8,0.6
		C28.8,24.6,27.5,24.7,26.1,24.5z"/>
	<path class="st5" d="M25.3,16.5c-0.2,0.3-0.6,0.7-1.2,0.9c-0.1,0-0.1,0-0.2,0.1c-1.1,0.4-2.6,0.9-4.5,0.9c-1.3,0-2.8-0.4-4.4-1.2
		c0,0,1.7-0.6,2.8-1.7c1.1-1.1,1.8-1.9,4.4-1.8c2.6,0.1,3.1,0.6,3.4,1.1c0,0.1,0.1,0.2,0.1,0.3l0,0C25.7,15.4,25.7,16,25.3,16.5z"/>
	<path class="st1" d="M33.8,16c0.7-0.3,1.2-0.6,1.6-0.9c0.3-0.3,0.5-0.6,0.5-0.9c-0.1-0.4-0.2-0.7-0.5-0.9c-0.6-0.7-1.9-0.8-4-1
		c-2.8-0.2-5.9,2.7-5.9,2.7L25,15.9c0,0,1,1.3,3.9,1.3S33.8,16,33.8,16"/>
	<path class="st1" d="M25.3,16.5c-0.2,0.3-0.6,0.7-1.2,0.9c-0.1,0-0.1,0-0.2,0.1c-1.1,0.4-2.6,0.9-4.5,0.9c-1.3,0-2.8-0.4-4.4-1.2
		c0,0,1.7-0.6,2.8-1.7c1.1-1.1,1.8-1.9,4.4-1.8c2.6,0.1,3.1,0.6,3.4,1.1c0,0.1,0.1,0.2,0.1,0.3l0,0C25.7,15.4,25.7,16,25.3,16.5z"/>
	<path class="st3" d="M33.9,15.2c0,0.2,0,0.5-0.1,0.7l0,0c-1.4,0.6-3.2,1-4.2,1.1c-0.5-0.5-0.7-1.1-0.7-1.9c0-1.5,1.1-2.6,2.5-2.6
		C32.8,12.6,33.9,13.8,33.9,15.2z"/>
	<path class="st1" d="M24,16.7c0,0.3,0,0.6-0.1,0.8c-1.1,0.4-2.6,0.9-4.5,0.9c-0.4-0.5-0.6-1-0.6-1.7c0-1.5,1.2-2.6,2.6-2.6
		C22.8,14,24,15.2,24,16.7z"/>
	<circle class="st4" cx="22.4" cy="16" r="0.6"/>
	<circle class="st4" cx="20.7" cy="15.4" r="0.4"/>
	<circle class="st4" cx="20.5" cy="16.6" r="0.4"/>
	<circle class="st4" cx="21.4" cy="17.3" r="0.2"/>
	<path class="st1" d="M33.9,15.2c0,0.2,0,0.5-0.1,0.7l0,0c-1.6,0.9-3.2,1-4.2,1.1c-0.5-0.5-0.7-1.1-0.7-1.9c0-1.5,1.1-2.6,2.5-2.6
		C32.8,12.6,33.9,13.8,33.9,15.2z"/>
	<circle class="st4" cx="32.1" cy="14.9" r="0.8"/>
	<circle class="st4" cx="30.5" cy="13.7" r="0.4"/>
	<circle class="st4" cx="30.1" cy="15.4" r="0.4"/>
	<circle class="st4" cx="30.6" cy="16.2" r="0.3"/>
</g>
<g>
	<path class="st4" d="M42.4,3.7c1.3,0,2.1,0.2,2.5,0.6c0.4,0.4,0.6,1.3,0.6,2.7v3.9c0,1.5-0.2,2.4-0.6,2.8c-0.4,0.4-1.2,0.6-2.4,0.6
		h-0.6V20H39V3.7H42.4z M41.8,12.1H42c0.3,0,0.4,0,0.5-0.2c0.1-0.1,0.1-0.4,0.1-0.8V6.9c0-0.5,0-0.8-0.1-0.9
		c-0.1-0.1-0.3-0.2-0.6-0.2h-0.2V12.1z"/>
	<path class="st4" d="M51.1,3.7v2.1h-1.7V10h1.7v2.2h-1.7v5.7h1.7V20h-4.5V3.7H51.1z"/>
	<path class="st4" d="M56.9,3.7v2.1h-1.7V10h1.7v2.2h-1.7v5.7h1.7V20h-4.5V3.7H56.9z"/>
	<path class="st4" d="M61.6,3.7c1.3,0,2.1,0.2,2.5,0.6c0.4,0.4,0.6,1.3,0.6,2.7v3.9c0,1.5-0.2,2.4-0.6,2.8c-0.4,0.4-1.2,0.6-2.4,0.6
		H61V20h-2.8V3.7H61.6z M61,12.1h0.2c0.3,0,0.4,0,0.5-0.2c0.1-0.1,0.1-0.4,0.1-0.8V6.9c0-0.5,0-0.8-0.1-0.9
		c-0.1-0.1-0.3-0.2-0.6-0.2H61V12.1z"/>
	<path class="st4" d="M65.7,6.9c0-1.4,0.2-2.4,0.6-2.7c0.4-0.4,1.3-0.5,2.7-0.5c1.4,0,2.3,0.2,2.7,0.6c0.4,0.4,0.6,1.3,0.6,2.7v10
		c0,1.4-0.2,2.3-0.6,2.7c-0.4,0.4-1.3,0.5-2.6,0.5c-1.4,0-2.3-0.2-2.7-0.5c-0.4-0.4-0.6-1.3-0.6-2.7V6.9z M68.5,17.3
		c0,0.5,0.2,0.7,0.5,0.7c0.2,0,0.3-0.1,0.3-0.2c0.1-0.1,0.1-0.3,0.1-0.5V6.5c0-0.5-0.2-0.7-0.5-0.7c-0.3,0-0.4,0.2-0.4,0.7V17.3z"/>
	<path class="st4" d="M80,3.7c1.3,0,2.1,0.2,2.5,0.6c0.4,0.4,0.6,1.3,0.6,2.7v3.9c0,1.5-0.2,2.4-0.6,2.8c-0.4,0.4-1.2,0.6-2.4,0.6
		h-0.6V20h-2.8V3.7H80z M79.4,12.1h0.2c0.3,0,0.4,0,0.5-0.2c0.1-0.1,0.1-0.4,0.1-0.8V6.9c0-0.5,0-0.8-0.1-0.9s-0.3-0.2-0.6-0.2h-0.2
		V12.1z"/>
	<path class="st4" d="M87,3.7V20h-2.8V3.7H87z"/>
	<path class="st4" d="M91.2,3.7v14.2h1.7V20h-4.5V3.7H91.2z"/>
	<path class="st4" d="M93.8,6.9c0-1.4,0.2-2.4,0.6-2.7c0.4-0.4,1.3-0.5,2.7-0.5c1.4,0,2.3,0.2,2.7,0.6c0.4,0.4,0.6,1.3,0.6,2.7v10
		c0,1.4-0.2,2.3-0.6,2.7c-0.4,0.4-1.3,0.5-2.6,0.5c-1.4,0-2.3-0.2-2.7-0.5c-0.4-0.4-0.6-1.3-0.6-2.7V6.9z M96.5,17.3
		c0,0.5,0.2,0.7,0.5,0.7c0.2,0,0.3-0.1,0.3-0.2c0.1-0.1,0.1-0.3,0.1-0.5V6.5c0-0.5-0.2-0.7-0.5-0.7c-0.3,0-0.4,0.2-0.4,0.7V17.3z"/>
	<path class="st4" d="M106.5,3.7v2.2h-1.4V20h-2.8V5.9H101V3.7H106.5z"/>
	<path class="st4" d="M113.7,9.3h-2.8V6.5c0-0.5-0.2-0.7-0.5-0.7c-0.1,0-0.3,0-0.3,0.2s-0.1,0.3-0.1,0.5V9c0,0.3,0,0.5,0.1,0.6
		s0.3,0.3,0.5,0.4l1.7,1c0.5,0.3,0.8,0.6,1,0.9c0.2,0.4,0.3,0.9,0.3,1.5v3.4c0,1.5-0.2,2.4-0.6,2.7c-0.4,0.3-1.3,0.5-2.7,0.5
		c-1.4,0-2.3-0.2-2.6-0.5c-0.4-0.4-0.6-1.3-0.6-2.7v-3.6h2.8v4c0,0.5,0.2,0.7,0.5,0.7c0.3,0,0.4-0.2,0.4-0.7v-3.5
		c0-0.3,0-0.5-0.1-0.6c-0.1-0.1-0.2-0.3-0.5-0.4l-1.8-1c-0.5-0.3-0.8-0.6-1-1c-0.2-0.4-0.3-0.9-0.3-1.6V6.9c0-1.4,0.2-2.3,0.6-2.7
		c0.4-0.4,1.3-0.6,2.7-0.6c1.4,0,2.2,0.2,2.6,0.5s0.6,1.3,0.6,2.7V9.3z"/>
</g>
</svg>
